<svg width="557" height="70" viewBox="0 0 557 70" fill="none" xmlns="http://www.w3.org/2000/svg">
<path d="M45.5045 5.13099C47.0485 5.13099 48.0457 6.25683 48.496 8.50849C48.8177 18.9948 48.9785 30.4462 48.9785 42.8625C48.9785 55.2145 48.9142 62.3555 48.7855 64.2855C48.6568 66.2155 48.2387 67.5665 47.531 68.3385C46.8233 69.1105 45.5367 69.4965 43.671 69.4965C41.9983 69.4965 41.162 68.4672 41.162 66.4085V44.5995C41.162 41.0612 41.0977 37.4263 40.969 33.695C40.8403 29.9637 40.776 27.6155 40.776 26.6505C38.5887 30.3818 35.6937 33.4698 32.091 35.9145C28.4883 38.2948 24.4675 39.485 20.0285 39.485C15.5895 39.485 11.8582 37.6515 8.83451 33.9845C8.70584 37.9088 8.64151 42.573 8.64151 47.977C8.64151 53.3167 8.67368 58.9458 8.73801 64.8645C8.73801 66.4728 8.19118 67.663 7.09751 68.435C6.06818 69.1427 4.87801 69.4965 3.52701 69.4965C1.79001 69.4965 0.921509 68.435 0.921509 66.312C0.985842 60.522 1.01801 51.3545 1.01801 38.8095V11.4035C1.01801 10.3098 1.37184 9.24833 2.07951 8.219C2.85151 7.18966 3.72001 6.67499 4.68501 6.67499C5.71434 6.67499 6.64718 6.96449 7.48351 7.54349C8.31984 8.05816 8.77017 8.86233 8.83451 9.95599C9.09184 17.097 10.2498 22.4045 12.3085 25.8785C14.3672 29.3525 16.8118 31.0895 19.6425 31.0895C22.4732 31.0895 24.8857 30.6392 26.88 29.7385C28.9387 28.7735 30.6113 27.6798 31.898 26.4575C33.249 25.2352 34.5357 23.4982 35.758 21.2465C37.495 18.0298 39.1677 14.0733 40.776 9.37699C41.741 6.54633 43.3172 5.13099 45.5045 5.13099Z" fill="white"/>
<path d="M71.2436 24.431C75.8756 24.431 79.6713 26.6505 82.6306 31.0895C85.6543 35.5285 87.1661 40.8682 87.1661 47.1085C87.1661 53.2845 85.6221 58.5598 82.5341 62.9345C79.5105 67.3092 75.4575 69.4965 70.3751 69.4965C65.3571 69.4965 61.3041 67.277 58.2161 62.838C55.1281 58.3347 53.5841 53.3488 53.5841 47.8805C53.5841 40.8682 54.9995 35.2712 57.8301 31.0895C60.8538 26.6505 65.325 24.431 71.2436 24.431ZM70.0856 32.344C67.3836 32.344 65.1641 33.7593 63.4271 36.59C61.6901 39.4207 60.8216 42.4122 60.8216 45.5645C60.8216 50.4538 61.7866 54.1852 63.7166 56.7585C65.6466 59.3318 67.834 60.6185 70.2786 60.6185C74.6533 60.6185 77.4518 58.7207 78.6741 54.925C79.1888 53.1237 79.4461 50.872 79.4461 48.17C79.4461 37.6193 76.326 32.344 70.0856 32.344Z" fill="white"/>
<path d="M92.601 24.3345L97.426 24.431C98.5197 24.431 99.1309 24.3988 99.2595 24.3345V4.55199C99.3239 3.45833 99.8707 2.52549 100.9 1.75349C101.929 0.98149 102.894 0.59549 103.795 0.59549C104.696 0.59549 105.403 0.88499 105.918 1.46399C106.497 2.04299 106.754 2.94366 106.69 4.16599C106.626 5.38833 106.594 12.079 106.594 24.238L117.884 23.852C119.814 23.852 120.779 24.9778 120.779 27.2295C120.779 28.9022 120.264 30.1567 119.235 30.993C118.27 31.8293 117.209 32.2797 116.051 32.344C114.957 32.4083 113.863 32.4405 112.77 32.4405L106.883 32.344C106.883 34.9817 107.14 40.1927 107.655 47.977C108.234 55.7613 108.684 60.8115 109.006 63.1275C109.328 65.3792 109.392 66.8588 109.199 67.5665C109.006 68.2098 108.652 68.6602 108.138 68.9175C107.301 69.3035 106.175 69.4965 104.76 69.4965C103.345 69.4965 102.508 68.7245 102.251 67.1805C100.964 58.7528 100.096 47.1728 99.6455 32.4405C99.0665 32.5048 96.847 32.537 92.987 32.537C89.127 32.537 87.197 31.4112 87.197 29.1595C87.197 25.9428 88.9984 24.3345 92.601 24.3345Z" fill="white"/>
<path d="M129.729 8.41199C130.887 8.41199 131.981 8.95883 133.01 10.0525C134.04 11.1462 134.554 12.3042 134.554 13.5265C134.554 14.6845 133.975 15.8747 132.817 17.097C131.724 18.3193 130.566 18.9305 129.343 18.9305C128.121 18.9305 126.995 18.4158 125.966 17.3865C125.001 16.3572 124.518 15.0383 124.518 13.43C124.518 10.342 126.191 8.66933 129.536 8.41199C129.601 8.41199 129.665 8.41199 129.729 8.41199ZM133.782 58.978L133.879 65.733C133.879 66.9553 133.396 67.9847 132.431 68.821C131.466 69.593 130.437 69.979 129.343 69.979C127.735 69.979 126.899 69.1748 126.834 67.5665C125.998 47.0442 125.58 35.6893 125.58 33.502C125.58 31.3147 125.676 28.6448 125.869 25.4925C125.998 24.3345 126.738 23.7555 128.089 23.7555C131.499 23.7555 133.429 25.1387 133.879 27.905C134.072 29.3203 134.168 30.4462 134.168 31.2825L133.782 37.362V58.978Z" fill="white"/>
<path d="M157.196 24.431C161.828 24.431 165.624 26.6505 168.583 31.0895C171.607 35.5285 173.119 40.8682 173.119 47.1085C173.119 53.2845 171.575 58.5598 168.487 62.9345C165.463 67.3092 161.41 69.4965 156.328 69.4965C151.31 69.4965 147.257 67.277 144.169 62.838C141.081 58.3347 139.537 53.3488 139.537 47.8805C139.537 40.8682 140.952 35.2712 143.783 31.0895C146.807 26.6505 151.278 24.431 157.196 24.431ZM156.038 32.344C153.336 32.344 151.117 33.7593 149.38 36.59C147.643 39.4207 146.774 42.4122 146.774 45.5645C146.774 50.4538 147.739 54.1852 149.669 56.7585C151.599 59.3318 153.787 60.6185 156.231 60.6185C160.606 60.6185 163.405 58.7207 164.627 54.925C165.142 53.1237 165.399 50.872 165.399 48.17C165.399 37.6193 162.279 32.344 156.038 32.344Z" fill="white"/>
<path d="M178.843 66.4085L177.782 27.2295C177.782 26.0072 178.2 25.01 179.036 24.238C179.873 23.466 180.709 23.08 181.545 23.08C183.604 23.08 184.794 23.9485 185.116 25.6855C185.373 27.4225 185.502 29.2238 185.502 31.0895C188.976 26.5218 193.318 24.238 198.529 24.238C206.507 24.238 210.495 33.3412 210.495 51.5475C210.495 53.2202 210.495 55.7613 210.495 59.171C210.495 62.5163 210.302 64.961 209.916 66.505C209.466 68.435 208.083 69.4 205.767 69.4C204.223 69.4 203.451 68.3707 203.451 66.312L203.547 60.908C203.547 53.4453 203.29 48.363 202.775 45.661C202.325 42.8947 201.875 40.7073 201.424 39.099C200.331 35.625 198.562 33.888 196.117 33.888C192.9 33.888 190.649 35.046 189.362 37.362C187.947 39.871 187.11 42.8303 186.853 46.24C186.403 52.223 186.177 58.5598 186.177 65.2505C186.177 66.5372 185.695 67.5665 184.73 68.3385C183.765 69.1105 182.607 69.4965 181.256 69.4965C179.648 69.4965 178.843 68.4672 178.843 66.4085Z" fill="white"/>
<path d="M281.096 5.13099C282.64 5.13099 283.638 6.25683 284.088 8.50849C284.41 18.9948 284.57 30.4462 284.57 42.8625C284.57 55.2145 284.506 62.3555 284.377 64.2855C284.249 66.2155 283.831 67.5665 283.123 68.3385C282.415 69.1105 281.129 69.4965 279.263 69.4965C277.59 69.4965 276.754 68.4672 276.754 66.4085V44.5995C276.754 41.0612 276.69 37.4263 276.561 33.695C276.432 29.9637 276.368 27.6155 276.368 26.6505C274.181 30.3818 271.286 33.4698 267.683 35.9145C264.08 38.2948 260.059 39.485 255.62 39.485C251.181 39.485 247.45 37.6515 244.426 33.9845C244.298 37.9088 244.233 42.573 244.233 47.977C244.233 53.3167 244.266 58.9458 244.33 64.8645C244.33 66.4728 243.783 67.663 242.689 68.435C241.66 69.1427 240.47 69.4965 239.119 69.4965C237.382 69.4965 236.513 68.435 236.513 66.312C236.578 60.522 236.61 51.3545 236.61 38.8095V11.4035C236.61 10.3098 236.964 9.24833 237.671 8.219C238.443 7.18966 239.312 6.67499 240.277 6.67499C241.306 6.67499 242.239 6.96449 243.075 7.54349C243.912 8.05816 244.362 8.86233 244.426 9.95599C244.684 17.097 245.842 22.4045 247.9 25.8785C249.959 29.3525 252.404 31.0895 255.234 31.0895C258.065 31.0895 260.478 30.6392 262.472 29.7385C264.531 28.7735 266.203 27.6798 267.49 26.4575C268.841 25.2352 270.128 23.4982 271.35 21.2465C273.087 18.0298 274.76 14.0733 276.368 9.37699C277.333 6.54633 278.909 5.13099 281.096 5.13099Z" fill="white"/>
<path d="M305.581 24.7205C308.991 24.7205 312.24 25.7177 315.328 27.712C318.416 29.7063 319.96 32.1832 319.96 35.1425C319.96 38.0375 318.705 40.8682 316.196 43.6345C313.687 46.3365 310.342 47.977 306.16 48.556C304.359 48.8133 301.657 48.942 298.054 48.942C298.762 54.4103 300.145 58.013 302.204 59.75C302.847 60.4577 303.715 60.8115 304.809 60.8115C308.798 60.8115 312.143 59.557 314.845 57.048C317.547 54.4747 319.477 53.188 320.635 53.188C321.15 53.188 321.922 53.6705 322.951 54.6355C323.98 55.6005 324.495 56.5012 324.495 57.3375C324.495 59.0102 322.469 61.4227 318.416 64.575C316.614 66.0547 314.427 67.3092 311.854 68.3385C309.345 69.3035 306.996 69.786 304.809 69.786C299.212 69.786 295.095 66.1833 292.457 58.978C290.784 54.539 289.948 49.6497 289.948 44.31C289.948 38.9703 291.203 34.3705 293.712 30.5105C296.221 26.6505 300.177 24.7205 305.581 24.7205ZM306.064 31.379C303.619 31.379 301.528 32.7622 299.791 35.5285C299.148 36.4935 298.537 38.6808 297.958 42.0905C306.964 42.0905 311.468 39.871 311.468 35.432C311.468 32.73 309.666 31.379 306.064 31.379Z" fill="white"/>
<path d="M328.687 24.3345L333.512 24.431C334.605 24.431 335.217 24.3988 335.345 24.3345V4.55199C335.41 3.45833 335.956 2.52549 336.986 1.75349C338.015 0.98149 338.98 0.59549 339.881 0.59549C340.781 0.59549 341.489 0.88499 342.004 1.46399C342.583 2.04299 342.84 2.94366 342.776 4.16599C342.711 5.38833 342.679 12.079 342.679 24.238L353.97 23.852C355.9 23.852 356.865 24.9778 356.865 27.2295C356.865 28.9022 356.35 30.1567 355.321 30.993C354.356 31.8293 353.294 32.2797 352.136 32.344C351.043 32.4083 349.949 32.4405 348.855 32.4405L342.969 32.344C342.969 34.9817 343.226 40.1927 343.741 47.977C344.32 55.7613 344.77 60.8115 345.092 63.1275C345.413 65.3792 345.478 66.8588 345.285 67.5665C345.092 68.2098 344.738 68.6602 344.223 68.9175C343.387 69.3035 342.261 69.4965 340.846 69.4965C339.43 69.4965 338.594 68.7245 338.337 67.1805C337.05 58.7528 336.182 47.1728 335.731 32.4405C335.152 32.5048 332.933 32.537 329.073 32.537C325.213 32.537 323.283 31.4112 323.283 29.1595C323.283 25.9428 325.084 24.3345 328.687 24.3345Z" fill="white"/>
<path d="M372.86 55.311L372.956 65.2505C372.956 66.4085 372.409 67.47 371.316 68.435C370.286 69.4 369.257 69.8825 368.228 69.8825C366.748 69.8825 365.815 68.7245 365.429 66.4085C365.365 65.8938 365.107 61.1975 364.657 52.3195C364.207 43.3772 363.338 36.3648 362.052 31.2825C361.473 28.8378 361.183 27.3903 361.183 26.94C361.183 24.817 362.47 23.7555 365.043 23.7555C366.137 23.7555 367.005 24.1737 367.649 25.01C368.292 25.8463 368.678 26.7148 368.807 27.6155C369 28.4518 369.16 29.6098 369.289 31.0895C369.418 32.5692 369.514 33.502 369.579 33.888C370.93 30.6713 372.956 28.2588 375.658 26.6505C378.36 25.0422 381.319 24.238 384.536 24.238C389.811 24.238 392.449 25.589 392.449 28.291C392.449 29.642 391.967 30.7357 391.002 31.572C390.101 32.344 389.039 32.73 387.817 32.73C382.349 32.73 378.489 34.467 376.237 37.941C373.985 41.415 372.86 47.205 372.86 55.311Z" fill="white"/>
<path d="M401.015 8.41199C402.173 8.41199 403.267 8.95883 404.296 10.0525C405.325 11.1462 405.84 12.3042 405.84 13.5265C405.84 14.6845 405.261 15.8747 404.103 17.097C403.009 18.3193 401.851 18.9305 400.629 18.9305C399.407 18.9305 398.281 18.4158 397.252 17.3865C396.287 16.3572 395.804 15.0383 395.804 13.43C395.804 10.342 397.477 8.66933 400.822 8.41199C400.886 8.41199 400.951 8.41199 401.015 8.41199ZM405.068 58.978L405.165 65.733C405.165 66.9553 404.682 67.9847 403.717 68.821C402.752 69.593 401.723 69.979 400.629 69.979C399.021 69.979 398.184 69.1748 398.12 67.5665C397.284 47.0442 396.866 35.6893 396.866 33.502C396.866 31.3147 396.962 28.6448 397.155 25.4925C397.284 24.3345 398.024 23.7555 399.375 23.7555C402.784 23.7555 404.714 25.1387 405.165 27.905C405.358 29.3203 405.454 30.4462 405.454 31.2825L405.068 37.362V58.978Z" fill="white"/>
<path d="M410.051 46.819C410.051 42.5087 411.176 38.5843 413.428 35.046C415.744 31.5077 418.671 28.87 422.21 27.133C425.748 25.3317 429.19 24.431 432.535 24.431C435.88 24.431 438.55 24.8492 440.545 25.6855C442.603 26.4575 443.633 27.519 443.633 28.87C443.633 30.1567 443.247 31.4755 442.475 32.8265C441.767 34.1132 440.802 34.7565 439.58 34.7565C439.129 34.7565 437.875 34.4027 435.816 33.695C433.822 32.923 432.535 32.537 431.956 32.537C428.225 32.537 425.04 33.9202 422.403 36.6865C419.765 39.3885 418.446 42.9912 418.446 47.4945C418.446 51.9978 419.154 55.3753 420.569 57.627C422.049 59.8143 424.558 60.908 428.096 60.908C429.511 60.908 431.924 60.1038 435.334 58.4955C438.808 56.8228 440.963 55.9865 441.799 55.9865C442.635 55.9865 443.311 56.2438 443.826 56.7585C444.34 57.2732 444.598 57.9165 444.598 58.6885C444.598 60.2325 443.6 61.873 441.606 63.61C439.676 65.2827 437.264 66.698 434.369 67.856C431.474 68.9497 428.868 69.4965 426.552 69.4965C421.405 69.4965 417.352 67.47 414.393 63.417C411.498 59.364 410.051 53.8313 410.051 46.819Z" fill="white"/>
<path d="M448.525 36.59C448.525 32.7943 449.876 29.7707 452.578 27.519C455.28 25.2673 458.4 24.1415 461.938 24.1415C465.541 24.1415 468.983 24.7848 472.264 26.0715C475.545 27.3582 477.185 29.063 477.185 31.186C477.185 32.2797 476.767 33.1482 475.931 33.7915C475.094 34.4348 474.355 34.7565 473.711 34.7565C473.132 34.7565 472.65 34.7565 472.264 34.7565C471.942 34.6922 470.655 34.081 468.404 32.923C466.216 31.765 464.19 31.186 462.324 31.186C460.459 31.186 458.85 31.6685 457.499 32.6335C456.213 33.5342 455.569 34.8852 455.569 36.6865C455.569 38.4878 456.309 39.9032 457.789 40.9325C459.333 41.9618 462.003 42.8625 465.798 43.6345C469.594 44.3422 472.489 45.3715 474.483 46.7225C476.542 48.0735 477.571 50.5825 477.571 54.2495C477.571 59.5892 476.156 63.3848 473.325 65.6365C470.559 67.8238 467.181 68.9175 463.193 68.9175C459.204 68.9175 455.794 68.3707 452.964 67.277C450.197 66.1833 448.814 64.5428 448.814 62.3555C448.814 59.8465 450.069 58.592 452.578 58.592C453.221 58.592 454.636 59.0423 456.824 59.943C459.011 60.8437 461.166 61.294 463.289 61.294C465.477 61.294 467.117 60.6185 468.211 59.2675C469.369 57.8522 469.948 56.2438 469.948 54.4425C469.948 52.6412 469.208 51.3545 467.728 50.5825C466.249 49.7462 463.997 49.0707 460.973 48.556C457.95 48.0413 455.73 47.4945 454.315 46.9155C450.455 45.3715 448.525 41.9297 448.525 36.59Z" fill="white"/>
<path d="M488 62C488 59.7909 489.791 58 492 58H525.483C526.321 58 527 58.6793 527 59.5172C527 64.7544 522.754 69 517.517 69H492C489.791 69 488 67.2091 488 65V62Z" fill="#006EFF"/>
<path d="M488 45C488 42.7909 489.791 41 492 41H555.483C556.321 41 557 41.6793 557 42.5172C557 47.7544 552.754 52 547.517 52H492C489.791 52 488 50.2091 488 48V45Z" fill="#006EFF"/>
<path d="M488 28C488 25.7909 489.791 24 492 24H536.517C541.754 24 546 28.2456 546 33.4828C546 34.3207 545.321 35 544.483 35H492C489.791 35 488 33.2091 488 31V28Z" fill="#006FFF"/>
</svg>